Coordinates
version=1
nRows=24
nColumns=24
inDegrees=yes

Units are S.I. units (second, meters, Newtons, ...)
Angles are in degrees.

endheader
time	pelvis_tilt	pelvis_list	pelvis_rotation	pelvis_tx	pelvis_ty	pelvis_tz	hip_flexion_r	hip_adduction_r	hip_rotation_r	knee_angle_r	ankle_angle_r	subtalar_angle_r	mtp_angle_r	hip_flexion_l	hip_adduction_l	hip_rotation_l	knee_angle_l	ankle_angle_l	subtalar_angle_l	mtp_angle_l	lumbar_extension	lumbar_bending	lumbar_rotation
      1.39600000	      1.69379823	      8.42263810	     -4.92600582	      0.24669229	      1.02103431	      0.31589302	     13.36748323	     -8.99206643	      2.99277876	    -62.61614562	      5.90652593	    -14.08909544	     -1.37914713	      5.77515539	     13.61885537	     -0.48984920	    -10.38933595	     -0.80652107	    -19.37923645	      7.39626494	     -4.35816606	    -10.41739258	      7.40778399
      1.40016667	      1.71253431	      8.31919058	     -4.78320714	      0.25167463	      1.02177049	      0.31579200	     13.79007526	     -8.83160742	      2.95721516	    -62.00072652	      6.13998070	    -14.00435982	     -1.38063725	      5.20266701	     13.56115596	     -0.18806178	     -9.99503922	     -0.74367183	    -19.45124058	      7.34103835	     -4.44045262	    -10.32353434	      7.00810427
      1.40433333	      1.67356607	      8.19058999	     -4.62223153	      0.25665348	      1.02241006	      0.31570584	     14.25112385	     -8.63142085	      2.91394697	    -61.32937364	      6.38664097	    -13.94314383	     -1.37868956	      4.71518513	     13.45713076	      0.04256983	     -9.65053473	     -0.69098152	    -19.40795295	      7.31017197	     -4.45044110	    -10.19687022	      6.81293870
      1.40850000	      1.69301775	      8.09485468	     -4.46681294	      0.26161114	      1.02305781	      0.31560869	     14.65182994	     -8.48662808	      2.85528495	    -60.64006149	      6.62163708	    -13.86599857	     -1.37811818	      4.14311883	     13.39821407	      0.34074857	     -9.24991892	     -0.65609995	    -19.47039555	      7.23735204	     -4.54015362	    -10.10214790	      6.39812097
      1.41266667	      1.66212370	      7.97207845	     -4.29360756	      0.26657602	      1.02363652	      0.31551235	     15.07891107	     -8.30593924	      2.78378188	    -59.88838188	      6.83633094	    -13.78146946	     -1.37508398	      3.65242129	     13.29391053	      0.56757150	     -8.91296534	     -0.58014717	    -19.40863689	      7.20933054	     -4.55700098	     -9.97259941	      6.22235663
      1.41683333	      1.67703720	      7.87396125	     -4.12653477	      0.27151320	      1.02420720	      0.31541712	     15.45752516	     -8.16537291	      2.70467752	    -59.11803675	      7.02828089	    -13.69990522	     -1.37252838	      3.09195288	     13.22332060	      0.86828871	     -8.52500623	     -0.51168088	    -19.45530889	      7.14895102	     -4.64244716	     -9.87514942	      5.79770500
      1.42100000	      1.66245320	      7.77188729	     -3.95154128	      0.27644579	      1.02470920	      0.31532511	     15.85290814	     -8.01879213	      2.61920937	    -58.30827232	      7.22055864	    -13.62267372	     -1.36914302	      2.57811656	     13.13877776	      1.13329038	     -8.16407073	     -0.45853853	    -19.46094323	      7.08804877	     -4.68700245	     -9.77358954	      5.49159694
      1.42516667	      1.62163200	      7.65661586	     -3.76673219	      0.28137340	      1.02514781	      0.31524246	     16.25733655	     -7.85514116	      2.52724307	    -57.45340866	      7.40635399	    -13.55652069	     -1.36602313	      2.11105726	     13.02842454	      1.35302865	     -7.83952160	     -0.40595397	    -19.39132374	      7.05987666	     -4.70170224	     -9.65435468	      5.30367484
      1.42933333	      1.62953316	      7.57048152	     -3.59030018	      0.28627557	      1.02558727	      0.31515514	     16.61119718	     -7.73876772	      2.42564331	    -56.58474916	      7.55331326	    -13.49744844	     -1.36316282	      1.57105087	     12.95771208	      1.64783159	     -7.46571417	     -0.33138888	    -19.43344194	      6.99896819	     -4.78041152	     -9.57192523	      4.86133922
      1.43350000	      1.59634316	      7.47170316	     -3.40546631	      0.29117301	      1.02594539	      0.31507811	     16.99075421	     -7.60307629	      2.32414688	    -55.67335899	      7.69709611	    -13.45234297	     -1.36065405	      1.09282655	     12.86219426	      1.91135835	     -7.12574766	     -0.27917353	    -19.43250754	      6.93776913	     -4.81074763	     -9.47452061	      4.55423363
      1.43766667	      1.58021183	      7.38442843	     -3.22412081	      0.29605949	      1.02626849	      0.31500674	     17.34555964	     -7.48751331	      2.21495053	    -54.74109810	      7.82917150	    -13.40574109	     -1.35890564	      0.60175021	     12.77674245	      2.16128420	     -6.78992347	     -0.21866770	    -19.42103728	      6.87663216	     -4.85933749	     -9.39108736	      4.24422325
      1.44183333	      1.56075094	      7.29483713	     -3.04311034	      0.30094803	      1.02655058	      0.31493184	     17.69035384	     -7.37561400	      2.09525191	    -53.77521942	      7.93033496	    -13.37430477	     -1.35823390	      0.11997253	     12.68487776	      2.39984423	     -6.46557937	     -0.13933105	    -19.40664868	      6.82209506	     -4.89561161	     -9.29616066	      3.95090068
      1.44600000	      1.49936034	      7.20522588	     -2.85753096	      0.30582796	      1.02674454	      0.31486858	     18.06759136	     -7.26052688	      1.97854126	    -52.77905004	      8.03733168	    -13.32985767	     -1.35789437	     -0.29717282	     12.58436051	      2.60155709	     -6.17388265	     -0.08151735	    -19.34222748	      6.79536535	     -4.88784229	     -9.20398822	      3.76174558
      1.45016667	      1.47429749	      7.14164866	     -2.68433338	      0.31068258	      1.02690815	      0.31482438	     18.40970933	     -7.17928928	      1.86785710	    -51.77995113	      8.09207983	    -13.34024240	     -1.36066910	     -0.76789894	     12.51524015	      2.86775927	     -5.84683013	     -0.00135018	    -19.36732362	      6.73761458	     -4.93347642	     -9.15237457	      3.34753646
      1.45433333	      1.42193475	      7.06434383	     -2.50561683	      0.31554952	      1.02701835	      0.31476851	     18.75854163	     -7.08956615	      1.73903943	    -50.73710256	      8.15772433	    -13.30600645	     -1.36239622	     -1.18361372	     12.42351705	      3.06098098	     -5.57056799	      0.07142650	    -19.31459689	      6.71033941	     -4.92762543	     -9.06829665	      3.16820265
      1.45850000	      1.38605026	      7.00934523	     -2.33912215	      0.32039557	      1.02708223	      0.31473633	     19.09186891	     -7.02385392	      1.62312395	    -49.68987111	      8.16796403	    -13.34423314	     -1.36859729	     -1.62966948	     12.35797830	      3.30989795	     -5.26312207	      0.16100853	    -19.34401723	      6.65559461	     -4.95621906	     -9.02506147	      2.78306651
      1.46266667	      1.32717262	      6.94157422	     -2.16880256	      0.32525631	      1.02709823	      0.31470415	     19.42787540	     -6.94878423	      1.49474756	    -48.60284417	      8.19282307	    -13.32838999	     -1.37311186	     -2.02624546	     12.27146542	      3.49770749	     -5.00589870	      0.23889760	    -19.30041907	      6.62545111	     -4.95156098	     -8.95108644	      2.59892851
      1.46683333	      1.27387075	      6.88715828	     -2.00887751	      0.33010826	      1.02706302	      0.31468828	     19.75264595	     -6.88861522	      1.37442782	    -47.49966775	      8.18016892	    -13.35063965	     -1.38016445	     -2.42976161	     12.19887317	      3.70255536	     -4.74284324	      0.33360372	    -19.27729848	      6.59300356	     -4.94433763	     -8.89907017	      2.34432462
      1.47100000	      1.20303124	      6.84243386	     -1.85914206	      0.33496021	      1.02694426	      0.31468945	     20.09595255	     -6.84188348	      1.25047995	    -46.39334203	      8.16640963	    -13.35817571	     -1.38673930	     -2.80991140	     12.13348312	      3.88188514	     -4.48232705	      0.42798240	    -19.24309044	      6.56852485	     -4.93590836	     -8.86016469	      2.13583073
      1.47516667	      1.17982992	      6.81281270	     -1.72240008	      0.33979651	      1.02685623	      0.31471781	     20.37546070	     -6.80948125	      1.14340463	    -45.25855548	      8.10035690	    -13.43931732	     -1.40076738	     -3.24702964	     12.08659473	      4.10319192	     -4.20920652	      0.52607236	    -19.27293358	      6.51524307	     -4.96891039	     -8.84683522	      1.77465674
      1.47933333	      1.09354182	      6.77632630	     -1.58377352	      0.34466287	      1.02663977	      0.31473100	     20.71014606	     -6.77655716	      1.01615794	    -44.10395763	      8.06524065	    -13.41768145	     -1.40839431	     -3.59088891	     12.02753134	      4.25517068	     -3.98736758	      0.62433693	    -19.23320768	      6.49189243	     -4.92240936	     -8.80974205	      1.64353413
      1.48350000	      1.05038126	      6.74586508	     -1.46023226	      0.34951549	      1.02644581	      0.31478539	     20.98704096	     -6.74358801	      0.90843915	    -42.92464525	      7.95916245	    -13.50794618	     -1.42404945	     -3.99354546	     11.97512318	      4.44747147	     -3.73992665	      0.74874318	    -19.24024312	      6.44781775	     -4.93769660	     -8.79194155	      1.36168395
      1.48766667	      0.98278288	      6.72576340	     -1.34014468	      0.35438836	      1.02617540	      0.31483648	     21.28153071	     -6.72805312	      0.78782865	    -41.73209624	      7.87153195	    -13.53875443	     -1.43978766	     -4.36038875	     11.93233823	      4.61260806	     -3.50948263	      0.85385394	    -19.23270935	      6.40041193	     -4.91279697	     -8.77785966	      1.15005946
      1.49183333	      0.91455075	      6.70143142	     -1.22833742	      0.35926787	      1.02586924	      0.31490967	     21.56122988	     -6.70612616	      0.66876070	    -40.51285758	      7.76305832	    -13.57592716	     -1.45564045	     -4.71979251	     11.88342004	      4.76893557	     -3.29376215	      0.97471313	    -19.21548815	      6.35576453	     -4.89074115	     -8.76217648	      0.96537717
